<svg width="26" height="27" viewBox="0 0 26 27" fill="none" xmlns="http://www.w3.org/2000/svg">
<g clip-path="url(#clip0_2_1641)">
<path d="M13.0867 18.3167C13.26 18.3167 13.39 18.2734 13.4767 18.1867C13.5633 18.1 13.6067 17.97 13.6067 17.7967V15.4567C13.6067 15.2256 13.52 15.0667 13.3467 14.98C13.1733 14.8934 13 14.8934 12.8267 14.98C12.6533 15.0667 12.5667 15.2256 12.5667 15.4567V17.7967C12.5667 17.97 12.6245 18.1 12.74 18.1867C12.8556 18.2734 12.9711 18.3167 13.0867 18.3167ZM13.0867 7.65671C13.26 7.65671 13.39 7.61338 13.4767 7.52671C13.5633 7.44005 13.6067 7.33893 13.6067 7.22338V4.79671C13.6067 4.62338 13.52 4.49338 13.3467 4.40671C13.1733 4.32005 13 4.32005 12.8267 4.40671C12.6533 4.49338 12.5667 4.62338 12.5667 4.79671V7.22338C12.5667 7.33893 12.6245 7.44005 12.74 7.52671C12.8556 7.61338 12.9711 7.65671 13.0867 7.65671ZM13.0867 13.03C13.26 13.03 13.39 12.9723 13.4767 12.8567C13.5633 12.7412 13.6067 12.6256 13.6067 12.51V10.17C13.6067 9.99671 13.5633 9.86671 13.4767 9.78005C13.39 9.69338 13.2745 9.65005 13.13 9.65005C12.9856 9.65005 12.8556 9.69338 12.74 9.78005C12.6245 9.86671 12.5667 9.99671 12.5667 10.17V12.51C12.5667 12.6256 12.6245 12.7412 12.74 12.8567C12.8556 12.9723 12.9711 13.03 13.0867 13.03ZM16.64 7.65671C16.7556 7.65671 16.8711 7.61338 16.9867 7.52671C17.1022 7.44005 17.16 7.33893 17.16 7.22338V4.79671C17.16 4.68116 17.1022 4.5656 16.9867 4.45005C16.8711 4.33449 16.7556 4.27671 16.64 4.27671C16.5245 4.27671 16.4089 4.33449 16.2933 4.45005C16.1778 4.5656 16.12 4.68116 16.12 4.79671V7.22338C16.12 7.33893 16.1778 7.44005 16.2933 7.52671C16.4089 7.61338 16.5245 7.65671 16.64 7.65671ZM16.64 13.03C16.7556 13.03 16.8711 12.9723 16.9867 12.8567C17.1022 12.7412 17.16 12.6256 17.16 12.51V10.17C17.16 9.99671 17.1022 9.86671 16.9867 9.78005C16.8711 9.69338 16.7556 9.65005 16.64 9.65005C16.5245 9.65005 16.4089 9.69338 16.2933 9.78005C16.1778 9.86671 16.12 9.99671 16.12 10.17V12.51C16.12 12.6256 16.1778 12.7412 16.2933 12.8567C16.4089 12.9723 16.5245 13.03 16.64 13.03ZM16.64 18.3167C16.7556 18.3167 16.8711 18.2734 16.9867 18.1867C17.1022 18.1 17.16 17.97 17.16 17.7967V15.4567C17.16 15.2834 17.1022 15.1534 16.9867 15.0667C16.8711 14.98 16.7556 14.9367 16.64 14.9367C16.5245 14.9367 16.4089 14.98 16.2933 15.0667C16.1778 15.1534 16.12 15.2834 16.12 15.4567V17.7967C16.12 17.97 16.1778 18.1 16.2933 18.1867C16.4089 18.2734 16.5245 18.3167 16.64 18.3167ZM22.5333 20.2234H22.9667C23.0822 20.2234 23.1833 20.18 23.27 20.0934C23.3567 20.0067 23.4 19.8912 23.4 19.7467C23.4 19.6023 23.3567 19.4867 23.27 19.4C23.1833 19.3134 23.0822 19.27 22.9667 19.27H22.5333C22.36 19.27 22.23 19.3134 22.1433 19.4C22.0567 19.4867 22.0133 19.6023 22.0133 19.7467C22.0133 19.8912 22.0567 20.0067 22.1433 20.0934C22.23 20.18 22.36 20.2234 22.5333 20.2234ZM22.5333 17.3634H22.9667C23.0822 17.3634 23.1833 17.32 23.27 17.2334C23.3567 17.1467 23.4 17.0312 23.4 16.8867C23.4 16.7423 23.3567 16.6123 23.27 16.4967C23.1833 16.3812 23.0822 16.3234 22.9667 16.3234H22.5333C22.36 16.3234 22.23 16.3812 22.1433 16.4967C22.0567 16.6123 22.0133 16.7423 22.0133 16.8867C22.0133 17.0312 22.0567 17.1467 22.1433 17.2334C22.23 17.32 22.36 17.3634 22.5333 17.3634ZM22.5333 23.0834H22.9667C23.0822 23.0834 23.1833 23.0256 23.27 22.91C23.3567 22.7945 23.4 22.6789 23.4 22.5634C23.4 22.4478 23.3567 22.3323 23.27 22.2167C23.1833 22.1012 23.0822 22.0434 22.9667 22.0434H22.5333C22.36 22.0434 22.23 22.1012 22.1433 22.2167C22.0567 22.3323 22.0133 22.4478 22.0133 22.5634C22.0133 22.6789 22.0567 22.7945 22.1433 22.91C22.23 23.0256 22.36 23.0834 22.5333 23.0834ZM7.10668 14.5034H7.54001C7.65557 14.5034 7.75668 14.46 7.84335 14.3734C7.93001 14.2867 7.97335 14.1712 7.97335 14.0267C7.97335 13.8823 7.93001 13.7667 7.84335 13.68C7.75668 13.5934 7.65557 13.55 7.54001 13.55H7.10668C6.93335 13.55 6.80335 13.5934 6.71668 13.68C6.63001 13.7667 6.58668 13.8823 6.58668 14.0267C6.58668 14.1712 6.63001 14.2867 6.71668 14.3734C6.80335 14.46 6.93335 14.5034 7.10668 14.5034ZM7.10668 11.6434H7.54001C7.65557 11.6434 7.75668 11.6 7.84335 11.5134C7.93001 11.4267 7.97335 11.3112 7.97335 11.1667C7.97335 11.0223 7.93001 10.9067 7.84335 10.82C7.75668 10.7334 7.65557 10.69 7.54001 10.69H7.10668C6.93335 10.69 6.80335 10.7334 6.71668 10.82C6.63001 10.9067 6.58668 11.0223 6.58668 11.1667C6.58668 11.3112 6.63001 11.4267 6.71668 11.5134C6.80335 11.6 6.93335 11.6434 7.10668 11.6434ZM7.10668 17.3634H7.54001C7.65557 17.3634 7.75668 17.32 7.84335 17.2334C7.93001 17.1467 7.97335 17.0312 7.97335 16.8867C7.97335 16.7423 7.93001 16.6123 7.84335 16.4967C7.75668 16.3812 7.65557 16.3234 7.54001 16.3234H7.10668C6.87557 16.3234 6.71668 16.41 6.63001 16.5834C6.54335 16.7567 6.54335 16.93 6.63001 17.1034C6.71668 17.2767 6.87557 17.3634 7.10668 17.3634ZM25.3067 12.25H20.6267V1.50338C20.6267 1.33005 20.5833 1.20005 20.4967 1.11338C20.41 1.02671 20.28 0.983379 20.1067 0.983379H9.62001C9.50446 0.983379 9.3889 1.04116 9.27335 1.15671C9.15779 1.27227 9.10001 1.38782 9.10001 1.50338V7.74338H4.94001C4.82446 7.74338 4.7089 7.78671 4.59335 7.87338C4.47779 7.96004 4.42001 8.09005 4.42001 8.26338V14.4167C4.42001 14.59 4.47779 14.72 4.59335 14.8067C4.7089 14.8934 4.8389 14.9367 4.98335 14.9367C5.12779 14.9367 5.24335 14.8934 5.33001 14.8067C5.41668 14.72 5.46001 14.59 5.46001 14.4167V8.69671H9.10001V25.4234H5.46001C5.28668 25.4234 5.15668 25.4812 5.07001 25.5967C4.98335 25.7123 4.94001 25.8423 4.94001 25.9867C4.94001 26.1312 4.98335 26.2467 5.07001 26.3334C5.15668 26.42 5.28668 26.4634 5.46001 26.4634H23.5733C24.2089 26.4634 24.7433 26.2467 25.1767 25.8134C25.61 25.38 25.8267 24.8745 25.8267 24.2967V12.77C25.8267 12.6545 25.7689 12.5389 25.6533 12.4234C25.5378 12.3078 25.4222 12.25 25.3067 12.25ZM13.6067 25.4234V21.5234H16.12V25.4234H13.6067ZM19.5867 25.4234H17.16V21.0034C17.16 20.83 17.1022 20.7 16.9867 20.6134C16.8711 20.5267 16.7556 20.4834 16.64 20.4834H13.0867C12.9711 20.4834 12.8556 20.5267 12.74 20.6134C12.6245 20.7 12.5667 20.83 12.5667 21.0034V25.4234H10.14V1.93671H19.5867V25.4234ZM24.7867 24.2967C24.7867 24.5856 24.6711 24.86 24.44 25.12C24.2089 25.38 23.92 25.51 23.5733 25.51H20.6267V13.29H24.7867V24.2967ZM6.32668 19.53C6.32668 18.6634 5.89335 17.8256 5.02668 17.0167C4.56446 16.5545 4.07335 16.1789 3.55335 15.89C3.43779 15.8323 3.29335 15.8323 3.12001 15.89C2.65779 16.1789 2.16668 16.5545 1.64668 17.0167C0.780013 17.8256 0.34668 18.6778 0.34668 19.5734C0.34668 20.4689 0.577791 21.2634 1.04001 21.9567C1.50224 22.65 2.1089 23.0545 2.86001 23.17V25.9434C2.86001 26.1167 2.90335 26.2467 2.99001 26.3334C3.07668 26.42 3.19224 26.4634 3.33668 26.4634C3.48112 26.4634 3.59668 26.42 3.68335 26.3334C3.77001 26.2467 3.81335 26.1167 3.81335 25.9434V23.17C4.56446 23.0545 5.17112 22.65 5.63335 21.9567C6.09557 21.2634 6.32668 20.4545 6.32668 19.53ZM1.30001 19.53C1.30001 19.0678 1.56001 18.5478 2.08001 17.97C2.42668 17.6234 2.86001 17.2767 3.38001 16.93C3.84224 17.2767 4.24668 17.6234 4.59335 17.97C5.11335 18.5478 5.37335 19.0678 5.37335 19.53C5.37335 20.1656 5.2289 20.7289 4.94001 21.22C4.65112 21.7112 4.27557 22.0145 3.81335 22.13V21.0034C3.81335 20.83 3.77001 20.7 3.68335 20.6134C3.59668 20.5267 3.48112 20.4834 3.33668 20.4834C3.19224 20.4834 3.07668 20.5267 2.99001 20.6134C2.90335 20.7 2.86001 20.83 2.86001 21.0034V22.13C2.39779 22.0145 2.02224 21.7112 1.73335 21.22C1.44446 20.7289 1.30001 20.1656 1.30001 19.53Z" fill="#1A1A1A"/>
</g>
<defs>
<clipPath id="clip0_2_1641">
<rect width="26" height="26" fill="white" transform="matrix(1 0 0 -1 0 26.55)"/>
</clipPath>
</defs>
</svg>
