<svg width="26" height="27" viewBox="0 0 26 27" fill="none" xmlns="http://www.w3.org/2000/svg">
<g clip-path="url(#clip0_2_1653)">
<path d="M1.04002 22.7367C0.924464 22.7367 0.808908 22.7945 0.693353 22.91C0.577797 23.0256 0.52002 23.1411 0.52002 23.2567V25.4234C0.52002 25.5967 0.577797 25.7411 0.693353 25.8567C0.808908 25.9723 0.924464 26.03 1.04002 26.03H20.02C20.1934 26.03 20.3378 25.9723 20.4534 25.8567C20.5689 25.7411 20.5978 25.5967 20.54 25.4234V23.2567C20.54 23.1411 20.4967 23.0256 20.41 22.91C20.3234 22.7945 20.1934 22.7367 20.02 22.7367H1.04002ZM1.64669 23.8634H19.5V24.9034H1.64669V23.8634ZM18.3734 13.03C18.2578 13.03 18.1422 13.0734 18.0267 13.16C17.9111 13.2467 17.8534 13.3767 17.8534 13.55V22.7367H3.20669V15.2834C3.26446 15.11 3.23557 14.98 3.12002 14.8934C3.00446 14.8067 2.87446 14.7634 2.73002 14.7634C2.58558 14.7634 2.45558 14.8067 2.34002 14.8934C2.22446 14.98 2.16669 15.11 2.16669 15.2834V23.2567C2.16669 23.43 2.22446 23.5745 2.34002 23.69C2.45558 23.8056 2.57113 23.8634 2.68669 23.8634H18.3734C18.5467 23.8634 18.6911 23.8056 18.8067 23.69C18.9222 23.5745 18.98 23.43 18.98 23.2567V13.55C18.98 13.3767 18.9222 13.2467 18.8067 13.16C18.6911 13.0734 18.5467 13.03 18.3734 13.03ZM3.20669 7.05003C2.97557 7.05003 2.83113 7.16558 2.77335 7.3967L0.606686 13.3767C0.548908 13.55 0.563353 13.7089 0.65002 13.8534C0.736686 13.9978 0.866686 14.07 1.04002 14.07H20.02C20.2511 14.07 20.41 13.9978 20.4967 13.8534C20.5834 13.7089 20.5978 13.55 20.54 13.3767L18.3734 7.3967C18.3156 7.16558 18.1422 7.05003 17.8534 7.05003H15.1667C14.9934 7.05003 14.8634 7.10781 14.7767 7.22336C14.69 7.33892 14.6467 7.46892 14.6467 7.61336C14.6467 7.75781 14.69 7.87336 14.7767 7.96003C14.8634 8.0467 14.9934 8.09003 15.1667 8.09003H17.5067L19.24 13.03H1.82002L3.64002 8.09003H6.24002C6.35558 8.09003 6.47113 8.0467 6.58669 7.96003C6.70224 7.87336 6.76002 7.75781 6.76002 7.61336C6.76002 7.46892 6.70224 7.33892 6.58669 7.22336C6.47113 7.10781 6.35558 7.05003 6.24002 7.05003H3.20669ZM6.24002 5.14336C6.06669 5.14336 5.93669 5.20114 5.85002 5.3167C5.76335 5.43225 5.72002 5.5767 5.72002 5.75003V10.8634C5.72002 10.9789 5.76335 11.0945 5.85002 11.21C5.93669 11.3256 6.06669 11.3834 6.24002 11.3834H14.9067C15.0222 11.3834 15.1378 11.3256 15.2534 11.21C15.3689 11.0945 15.4267 10.9789 15.4267 10.8634V5.75003C15.4267 5.5767 15.3689 5.43225 15.2534 5.3167C15.1378 5.20114 15.0078 5.14336 14.8634 5.14336C14.7189 5.14336 14.6034 5.20114 14.5167 5.3167C14.43 5.43225 14.3867 5.5767 14.3867 5.75003V10.2567H6.76002V5.75003C6.76002 5.5767 6.70224 5.43225 6.58669 5.3167C6.47113 5.20114 6.35558 5.14336 6.24002 5.14336ZM5.98002 1.07003C5.69113 1.07003 5.5178 1.21447 5.46002 1.50336L4.07335 5.5767C4.01558 5.75003 4.04446 5.90892 4.16002 6.05336C4.27558 6.19781 4.42002 6.27003 4.59335 6.27003H16.5534C16.7267 6.27003 16.8711 6.19781 16.9867 6.05336C17.1022 5.90892 17.1311 5.75003 17.0734 5.5767L15.6867 1.50336C15.6289 1.21447 15.4556 1.07003 15.1667 1.07003H5.98002ZM6.32669 2.1967H14.82L15.7734 5.14336H5.37335L6.32669 2.1967ZM4.85335 16.8434C4.7378 16.7856 4.62224 16.8145 4.50669 16.93C4.39113 17.0456 4.33335 17.19 4.33335 17.3634V23.2567C4.33335 23.43 4.39113 23.5745 4.50669 23.69C4.62224 23.8056 4.7378 23.8634 4.85335 23.8634H9.53335C9.64891 23.8634 9.76446 23.8056 9.88002 23.69C9.99557 23.5745 10.0534 23.43 10.0534 23.2567V17.3634C10.0534 17.19 9.99557 17.06 9.88002 16.9734C9.76446 16.8867 9.64891 16.8434 9.53335 16.8434H4.85335ZM5.46002 17.8834H8.92669V22.7367H5.46002V17.8834ZM11.7 16.8434C11.5267 16.7856 11.3822 16.8145 11.2667 16.93C11.1511 17.0456 11.0934 17.19 11.0934 17.3634V21.0034C11.0934 21.1189 11.1511 21.2345 11.2667 21.35C11.3822 21.4656 11.5267 21.5234 11.7 21.5234H16.8134C16.9289 21.5234 17.0445 21.4656 17.16 21.35C17.2756 21.2345 17.3334 21.1189 17.3334 21.0034V19.1834C17.3334 19.01 17.2756 18.88 17.16 18.7934C17.0445 18.7067 16.9145 18.6634 16.77 18.6634C16.6256 18.6634 16.4956 18.7067 16.38 18.7934C16.2645 18.88 16.2067 19.01 16.2067 19.1834V20.4834H12.22V17.8834H16.8134C16.9289 17.8834 17.0445 17.8256 17.16 17.71C17.2756 17.5945 17.3334 17.4645 17.3334 17.32C17.3334 17.1756 17.2756 17.06 17.16 16.9734C17.0445 16.8867 16.9289 16.8434 16.8134 16.8434H11.7ZM8.66669 6.70336C8.49335 6.64558 8.36335 6.67447 8.27669 6.79003C8.19002 6.90558 8.14669 7.05003 8.14669 7.22336V9.39003C8.14669 9.50558 8.19002 9.62114 8.27669 9.7367C8.36335 9.85225 8.49335 9.91003 8.66669 9.91003H12.48C12.5956 9.91003 12.7111 9.85225 12.8267 9.7367C12.9422 9.62114 13 9.50558 13 9.39003V7.22336C13 7.05003 12.9422 6.90558 12.8267 6.79003C12.7111 6.67447 12.5956 6.64558 12.48 6.70336H8.66669ZM9.18669 7.74336H11.96V8.78336H9.18669V7.74336ZM22.1867 1.07003C21.32 1.07003 20.5689 1.38781 19.9334 2.02336C19.2978 2.65892 18.98 3.42447 18.98 4.32003C18.98 5.21559 19.2978 5.98114 19.9334 6.6167C20.5689 7.25225 21.3345 7.57003 22.23 7.57003C23.1256 7.57003 23.8911 7.25225 24.5267 6.6167C25.1622 5.98114 25.48 5.21559 25.48 4.32003C25.48 3.42447 25.1622 2.65892 24.5267 2.02336C23.8911 1.38781 23.1111 1.07003 22.1867 1.07003ZM22.1867 2.1967C22.8222 2.1967 23.3422 2.39892 23.7467 2.80336C24.1511 3.20781 24.3534 3.71336 24.3534 4.32003C24.3534 4.9267 24.1511 5.4467 23.7467 5.88003C23.3422 6.31336 22.8367 6.53003 22.23 6.53003C21.6234 6.53003 21.1034 6.31336 20.67 5.88003C20.2367 5.4467 20.02 4.9267 20.02 4.32003C20.02 3.71336 20.2367 3.20781 20.67 2.80336C21.1034 2.39892 21.6089 2.1967 22.1867 2.1967ZM7.28002 20.31C7.28002 20.4834 7.22224 20.6278 7.10669 20.7434C6.99113 20.8589 6.86113 20.9167 6.71669 20.9167C6.57224 20.9167 6.44224 20.8589 6.32669 20.7434C6.21113 20.6278 6.15335 20.4834 6.15335 20.31C6.15335 20.1367 6.21113 19.9923 6.32669 19.8767C6.44224 19.7611 6.57224 19.7034 6.71669 19.7034C6.86113 19.7034 6.99113 19.7611 7.10669 19.8767C7.22224 19.9923 7.28002 20.1367 7.28002 20.31ZM13.6067 18.4034C13.3756 18.4034 13.2022 18.49 13.0867 18.6634L12.8267 19.0967C12.7111 19.27 12.6822 19.4289 12.74 19.5734C12.7978 19.7178 12.8845 19.8189 13 19.8767C13.1156 19.9345 13.2456 19.9489 13.39 19.92C13.5345 19.8911 13.6645 19.8189 13.78 19.7034L14.04 19.1834C14.0978 19.0678 14.1122 18.9378 14.0834 18.7934C14.0545 18.6489 13.9822 18.5478 13.8667 18.49C13.7511 18.4323 13.6645 18.4034 13.6067 18.4034ZM15.1667 18.4034C14.9934 18.4034 14.8489 18.49 14.7334 18.6634L14.4734 19.0967C14.3578 19.27 14.3289 19.4289 14.3867 19.5734C14.4445 19.7178 14.5311 19.8189 14.6467 19.8767C14.7622 19.9345 14.8922 19.9489 15.0367 19.92C15.1811 19.8911 15.2822 19.8189 15.34 19.7034L15.6 19.1834C15.7156 19.0678 15.7445 18.9378 15.6867 18.7934C15.6289 18.6489 15.5567 18.5478 15.47 18.49C15.3834 18.4323 15.2822 18.4034 15.1667 18.4034Z" fill="#1A1A1A"/>
</g>
<defs>
<clipPath id="clip0_2_1653">
<rect width="26" height="26" fill="white" transform="matrix(1 0 0 -1 0 26.55)"/>
</clipPath>
</defs>
</svg>
