<svg width="26" height="27" viewBox="0 0 26 27" fill="none" xmlns="http://www.w3.org/2000/svg">
<g clip-path="url(#clip0_2_1647)">
<path d="M25.48 24.99H23.92V16.7567C23.92 16.6411 23.8767 16.5256 23.79 16.41C23.7033 16.2945 23.5878 16.2367 23.4433 16.2367C23.2989 16.2367 23.1689 16.2945 23.0533 16.41C22.9378 16.5256 22.88 16.6411 22.88 16.7567V24.99H19.24V20.7434C19.24 20.6278 19.1967 20.5122 19.11 20.3967C19.0233 20.2811 18.8933 20.2234 18.72 20.2234H15.4267C15.3111 20.2234 15.1956 20.2811 15.08 20.3967C14.9644 20.5122 14.9067 20.6278 14.9067 20.7434V24.99H11.3533V4.10336H22.88V12.25C22.88 12.4234 22.9378 12.5534 23.0533 12.64C23.1689 12.7267 23.2989 12.77 23.4433 12.77C23.5878 12.77 23.7033 12.7267 23.79 12.64C23.8767 12.5534 23.92 12.4234 23.92 12.25V3.58336C23.92 3.41003 23.8767 3.28003 23.79 3.19336C23.7033 3.10669 23.5733 3.06336 23.4 3.06336H22.1867V1.59003C22.1867 1.47447 22.1289 1.37336 22.0133 1.28669C21.8978 1.20003 21.7822 1.15669 21.6667 1.15669H12.74C12.6244 1.15669 12.5089 1.20003 12.3933 1.28669C12.2778 1.37336 12.22 1.47447 12.22 1.59003V3.06336H10.8333C10.7178 3.06336 10.6167 3.10669 10.53 3.19336C10.4433 3.28003 10.4 3.41003 10.4 3.58336V11.47H6.41333V9.91003C6.41333 9.73669 6.35556 9.60669 6.24 9.52003C6.12444 9.43336 6.00889 9.39003 5.89333 9.39003H2.34C2.22444 9.39003 2.10889 9.43336 1.99333 9.52003C1.87778 9.60669 1.82 9.73669 1.82 9.91003V24.99H0.52C0.346667 24.99 0.216667 25.0334 0.13 25.12C0.0433333 25.2067 0 25.3222 0 25.4667C0 25.6111 0.0433333 25.7267 0.13 25.8134C0.216667 25.9 0.346667 25.9434 0.52 25.9434H25.48C25.6533 25.9434 25.7833 25.9 25.87 25.8134C25.9567 25.7267 26 25.6111 26 25.4667C26 25.3222 25.9567 25.2067 25.87 25.12C25.7833 25.0334 25.6533 24.99 25.48 24.99ZM13.26 2.11003H21.1467V3.06336H13.26V2.11003ZM2.86 10.43H5.37333V11.47H2.86V10.43ZM7.19333 24.99H5.98V23.17H7.19333V24.99ZM10.4 24.99H8.23333V22.65C8.23333 22.5345 8.17556 22.4189 8.06 22.3034C7.94444 22.1878 7.82889 22.13 7.71333 22.13H5.46C5.34444 22.13 5.22889 22.1878 5.11333 22.3034C4.99778 22.4189 4.94 22.5345 4.94 22.65V24.99H2.86V12.51H10.4V24.99ZM18.2867 24.99H15.9467V21.2634H18.2867V24.99ZM23.8333 14.33C23.7178 14.0989 23.5444 14.0122 23.3133 14.07C23.0822 14.1278 22.9522 14.2722 22.9233 14.5034C22.8944 14.7345 22.9811 14.9078 23.1833 15.0234C23.3856 15.1389 23.5589 15.1389 23.7033 15.0234C23.8478 14.9078 23.92 14.7922 23.92 14.6767C23.92 14.5611 23.8911 14.4456 23.8333 14.33ZM16.2933 6.35669C16.2933 6.24114 16.2356 6.14003 16.12 6.05336C16.0044 5.96669 15.8889 5.92336 15.7733 5.92336H13.6067C13.4911 5.92336 13.3756 5.96669 13.26 6.05336C13.1444 6.14003 13.0867 6.24114 13.0867 6.35669V8.52336C13.0867 8.69669 13.1444 8.82669 13.26 8.91336C13.3756 9.00003 13.4911 9.04336 13.6067 9.04336H15.7733C15.8889 9.04336 16.0044 9.00003 16.12 8.91336C16.2356 8.82669 16.2933 8.69669 16.2933 8.52336V6.35669ZM15.2533 8.00336H14.1267V6.87669H15.2533V8.00336ZM21.06 6.35669C21.06 6.24114 21.0022 6.14003 20.8867 6.05336C20.7711 5.96669 20.6556 5.92336 20.54 5.92336H18.3733C18.2578 5.92336 18.1422 5.96669 18.0267 6.05336C17.9111 6.14003 17.8533 6.24114 17.8533 6.35669V8.52336C17.8533 8.69669 17.9111 8.82669 18.0267 8.91336C18.1422 9.00003 18.2578 9.04336 18.3733 9.04336H20.54C20.6556 9.04336 20.7711 9.00003 20.8867 8.91336C21.0022 8.82669 21.06 8.69669 21.06 8.52336V6.35669ZM20.02 8.00336H18.8933V6.87669H20.02V8.00336ZM16.2933 10.8634C16.2933 10.69 16.2356 10.56 16.12 10.4734C16.0044 10.3867 15.8889 10.3434 15.7733 10.3434H13.6067C13.4911 10.3434 13.3756 10.3867 13.26 10.4734C13.1444 10.56 13.0867 10.69 13.0867 10.8634V12.9434C13.0867 13.1167 13.1444 13.2467 13.26 13.3334C13.3756 13.42 13.4911 13.4634 13.6067 13.4634H15.7733C15.8889 13.4634 16.0044 13.42 16.12 13.3334C16.2356 13.2467 16.2933 13.1167 16.2933 12.9434V10.8634ZM15.2533 12.51H14.1267V11.3834H15.2533V12.51ZM21.06 10.8634C21.06 10.69 21.0022 10.56 20.8867 10.4734C20.7711 10.3867 20.6556 10.3434 20.54 10.3434H18.3733C18.2578 10.3434 18.1422 10.3867 18.0267 10.4734C17.9111 10.56 17.8533 10.69 17.8533 10.8634V12.9434C17.8533 13.1167 17.9111 13.2467 18.0267 13.3334C18.1422 13.42 18.2578 13.4634 18.3733 13.4634H20.54C20.6556 13.4634 20.7711 13.42 20.8867 13.3334C21.0022 13.2467 21.06 13.1167 21.06 12.9434V10.8634ZM20.02 12.51H18.8933V11.3834H20.02V12.51ZM15.7733 14.7634H13.6067C13.4911 14.7634 13.3756 14.8067 13.26 14.8934C13.1444 14.98 13.0867 15.11 13.0867 15.2834V17.45C13.0867 17.5656 13.1444 17.6811 13.26 17.7967C13.3756 17.9122 13.4911 17.97 13.6067 17.97H15.7733C15.8889 17.97 16.0044 17.9122 16.12 17.7967C16.2356 17.6811 16.2933 17.5656 16.2933 17.45V15.2834C16.2933 15.11 16.2356 14.98 16.12 14.8934C16.0044 14.8067 15.8889 14.7634 15.7733 14.7634ZM15.2533 16.93H14.1267V15.8034H15.2533V16.93ZM20.54 14.7634H18.3733C18.2578 14.7634 18.1422 14.8067 18.0267 14.8934C17.9111 14.98 17.8533 15.11 17.8533 15.2834V17.45C17.8533 17.5656 17.9111 17.6811 18.0267 17.7967C18.1422 17.9122 18.2578 17.97 18.3733 17.97H20.54C20.6556 17.97 20.7711 17.9122 20.8867 17.7967C21.0022 17.6811 21.06 17.5656 21.06 17.45V15.2834C21.06 15.11 21.0022 14.98 20.8867 14.8934C20.7711 14.8067 20.6556 14.7634 20.54 14.7634ZM20.02 16.93H18.8933V15.8034H20.02V16.93ZM4.50667 13.6367C4.39111 13.6367 4.27556 13.6945 4.16 13.81C4.04444 13.9256 3.98667 14.0411 3.98667 14.1567V20.57C3.98667 20.6856 4.04444 20.8011 4.16 20.9167C4.27556 21.0322 4.39111 21.09 4.50667 21.09C4.62222 21.09 4.73778 21.0322 4.85333 20.9167C4.96889 20.8011 5.02667 20.6856 5.02667 20.57V14.1567C5.02667 14.0411 4.96889 13.9256 4.85333 13.81C4.73778 13.6945 4.62222 13.6367 4.50667 13.6367ZM6.58667 21.09C6.70222 21.09 6.81778 21.0322 6.93333 20.9167C7.04889 20.8011 7.10667 20.6856 7.10667 20.57V14.1567C7.10667 14.0411 7.04889 13.9256 6.93333 13.81C6.81778 13.6945 6.70222 13.6367 6.58667 13.6367C6.47111 13.6367 6.35556 13.6945 6.24 13.81C6.12444 13.9256 6.06667 14.0411 6.06667 14.1567V20.57C6.06667 20.6856 6.12444 20.8011 6.24 20.9167C6.35556 21.0322 6.47111 21.09 6.58667 21.09ZM8.66667 21.09C8.78222 21.09 8.89778 21.0322 9.01333 20.9167C9.12889 20.8011 9.18667 20.6856 9.18667 20.57V14.1567C9.18667 14.0411 9.12889 13.9256 9.01333 13.81C8.89778 13.6945 8.78222 13.6367 8.66667 13.6367C8.55111 13.6367 8.43556 13.6945 8.32 13.81C8.20444 13.9256 8.14667 14.0411 8.14667 14.1567V20.57C8.14667 20.6856 8.20444 20.8011 8.32 20.9167C8.43556 21.0322 8.55111 21.09 8.66667 21.09Z" fill="#1A1A1A"/>
</g>
<defs>
<clipPath id="clip0_2_1647">
<rect width="26" height="26" fill="white" transform="matrix(1 0 0 -1 0 26.55)"/>
</clipPath>
</defs>
</svg>
