<svg width="26" height="27" viewBox="0 0 26 27" fill="none" xmlns="http://www.w3.org/2000/svg">
<g clip-path="url(#clip0_2_1635)">
<path d="M3.12021 15.11C2.94688 15.11 2.81687 15.1534 2.73021 15.24C2.64354 15.3267 2.60021 15.4567 2.60021 15.63V25.4234C2.60021 25.5967 2.64354 25.7411 2.73021 25.8567C2.81687 25.9723 2.94688 26.03 3.12021 26.03H22.6202C22.7358 26.03 22.8513 25.9723 22.9669 25.8567C23.0824 25.7411 23.1402 25.5967 23.1402 25.4234V17.45C23.1402 17.2767 23.0824 17.1467 22.9669 17.06C22.8513 16.9734 22.7213 16.93 22.5769 16.93C22.4324 16.93 22.3169 16.9734 22.2302 17.06C22.1435 17.1467 22.1002 17.2767 22.1002 17.45V24.9034H3.64021V15.63C3.64021 15.4567 3.58243 15.3267 3.46688 15.24C3.35132 15.1534 3.23576 15.11 3.12021 15.11ZM5.28687 17.3634C5.11354 17.3634 4.98354 17.4067 4.89687 17.4934C4.81021 17.58 4.76687 17.71 4.76687 17.8834V25.4234C4.76687 25.5967 4.81021 25.7411 4.89687 25.8567C4.98354 25.9723 5.11354 26.03 5.28687 26.03H11.2669C11.3824 26.03 11.498 25.9723 11.6135 25.8567C11.7291 25.7411 11.7869 25.5967 11.7869 25.4234V19.53C11.7869 19.4145 11.7291 19.2989 11.6135 19.1834C11.498 19.0678 11.368 19.01 11.2235 19.01C11.0791 19.01 10.9491 19.0678 10.8335 19.1834C10.718 19.2989 10.6602 19.4145 10.6602 19.53V24.9034H5.80687V18.4034H11.2669C11.3824 18.4034 11.498 18.36 11.6135 18.2734C11.7291 18.1867 11.7869 18.0567 11.7869 17.8834C11.7869 17.71 11.7291 17.58 11.6135 17.4934C11.498 17.4067 11.3824 17.3634 11.2669 17.3634H5.28687ZM13.9535 17.3634C13.7802 17.3634 13.6502 17.4067 13.5635 17.4934C13.4769 17.58 13.4335 17.71 13.4335 17.8834V22.7367C13.4335 22.91 13.4769 23.04 13.5635 23.1267C13.6502 23.2134 13.7802 23.2567 13.9535 23.2567H20.4535C20.5691 23.2567 20.6847 23.2134 20.8002 23.1267C20.9158 23.04 20.9735 22.91 20.9735 22.7367V19.53C20.9735 19.4145 20.9158 19.2989 20.8002 19.1834C20.6847 19.0678 20.5547 19.01 20.4102 19.01C20.2658 19.01 20.1502 19.0678 20.0635 19.1834C19.9769 19.2989 19.9335 19.4145 19.9335 19.53V22.2167H14.4735V18.4034H20.4535C20.5691 18.4034 20.6847 18.36 20.8002 18.2734C20.9158 18.1867 20.9735 18.0567 20.9735 17.8834C20.9735 17.71 20.9158 17.58 20.8002 17.4934C20.6847 17.4067 20.5691 17.3634 20.4535 17.3634H13.9535ZM12.8269 11.5567C12.1913 11.5567 11.6569 11.7878 11.2235 12.25C10.7902 12.7123 10.5735 13.2611 10.5735 13.8967C10.5735 14.5323 10.7902 15.0811 11.2235 15.5434C11.6569 16.0056 12.1913 16.2367 12.8269 16.2367C13.4624 16.2367 14.0113 16.0056 14.4735 15.5434C14.9358 15.0811 15.1669 14.5323 15.1669 13.8967C15.1669 13.7234 15.1091 13.5934 14.9935 13.5067C14.878 13.42 14.748 13.3767 14.6035 13.3767C14.4591 13.3767 14.3291 13.42 14.2135 13.5067C14.098 13.5934 14.0402 13.7234 14.0402 13.8967C14.0402 14.2434 13.9247 14.5323 13.6935 14.7634C13.4624 14.9945 13.1735 15.11 12.8269 15.11C12.4802 15.11 12.1913 14.9945 11.9602 14.7634C11.7291 14.5323 11.6135 14.2434 11.6135 13.8967C11.6135 13.55 11.7291 13.2611 11.9602 13.03C12.1913 12.7989 12.4802 12.6834 12.8269 12.6834C13.1735 12.6834 13.4624 12.7989 13.6935 13.03C13.8091 13.1456 13.9391 13.2034 14.0835 13.2034C14.228 13.2034 14.358 13.1456 14.4735 13.03C14.5891 12.9145 14.6469 12.7845 14.6469 12.64C14.6469 12.4956 14.5891 12.3656 14.4735 12.25C14.0113 11.7878 13.4624 11.5567 12.8269 11.5567ZM16.3802 19.27C16.1491 19.27 16.0047 19.3856 15.9469 19.6167L15.3402 20.4834C15.2824 20.6567 15.268 20.8156 15.2969 20.96C15.3258 21.1045 15.4124 21.2056 15.5569 21.2634C15.7013 21.3211 15.8458 21.3356 15.9902 21.3067C16.1347 21.2778 16.2358 21.2056 16.2935 21.09L16.8135 20.1367C16.9291 20.0211 16.958 19.8911 16.9002 19.7467C16.8424 19.6023 16.7702 19.5011 16.6835 19.4434C16.5969 19.3856 16.4958 19.3278 16.3802 19.27ZM18.5469 19.27C18.3158 19.27 18.1713 19.3856 18.1135 19.6167L17.5069 20.4834C17.4491 20.6567 17.4347 20.8156 17.4635 20.96C17.4924 21.1045 17.5791 21.2056 17.7235 21.2634C17.868 21.3211 18.0124 21.3356 18.1569 21.3067C18.3013 21.2778 18.4024 21.2056 18.4602 21.09L18.9802 20.1367C19.0958 20.0211 19.1247 19.8911 19.0669 19.7467C19.0091 19.6023 18.9369 19.5011 18.8502 19.4434C18.7635 19.3856 18.6624 19.3278 18.5469 19.27ZM21.7535 1.07003C20.8291 1.07003 20.0202 1.4167 19.3269 2.11003C18.6335 2.80336 18.2869 3.64114 18.2869 4.62336C18.2869 5.60559 18.6335 6.42892 19.3269 7.09336C20.0202 7.75781 20.8435 8.09003 21.7969 8.09003C22.7502 8.09003 23.5735 7.75781 24.2669 7.09336C24.9602 6.42892 25.3069 5.60559 25.3069 4.62336C25.3069 3.64114 24.9602 2.80336 24.2669 2.11003C23.5735 1.4167 22.7358 1.07003 21.7535 1.07003ZM21.7535 2.1967C22.4469 2.1967 23.0391 2.42781 23.5302 2.89003C24.0213 3.35225 24.2669 3.93003 24.2669 4.62336C24.2669 5.3167 24.0213 5.89447 23.5302 6.3567C23.0391 6.81892 22.4613 7.05003 21.7969 7.05003C21.1324 7.05003 20.5547 6.81892 20.0635 6.3567C19.5724 5.89447 19.3269 5.3167 19.3269 4.62336C19.3269 3.93003 19.5724 3.35225 20.0635 2.89003C20.5547 2.42781 21.118 2.1967 21.7535 2.1967ZM3.20688 5.66336C3.09132 5.66336 2.97576 5.7067 2.86021 5.79336C2.74465 5.88003 2.68687 6.01003 2.68687 6.18336V12.3367C2.68687 12.4523 2.74465 12.5678 2.86021 12.6834C2.97576 12.7989 3.10576 12.8567 3.25021 12.8567C3.39465 12.8567 3.51021 12.7989 3.59687 12.6834C3.68354 12.5678 3.72688 12.4523 3.72688 12.3367V6.70336H5.89354V9.91003C5.89354 10.0834 5.95132 10.2278 6.06687 10.3434C6.18243 10.4589 6.31243 10.5167 6.45687 10.5167C6.60132 10.5167 6.73132 10.4589 6.84687 10.3434C6.96243 10.2278 7.02021 10.0834 7.02021 9.91003V6.18336C7.02021 6.01003 6.96243 5.88003 6.84687 5.79336C6.73132 5.7067 6.61576 5.66336 6.50021 5.66336H3.20688ZM2.16688 3.67003C1.99354 3.67003 1.8491 3.72781 1.73354 3.84336C1.61799 3.95892 1.56021 4.07447 1.56021 4.19003V6.18336C1.56021 6.29892 1.61799 6.41447 1.73354 6.53003C1.8491 6.64558 1.99354 6.70336 2.16688 6.70336H7.54021C7.71354 6.70336 7.84354 6.64558 7.93021 6.53003C8.01687 6.41447 8.06021 6.29892 8.06021 6.18336V4.19003C8.06021 4.07447 8.01687 3.95892 7.93021 3.84336C7.84354 3.72781 7.71354 3.67003 7.54021 3.67003H2.16688ZM2.68687 4.7967H7.02021V5.66336H2.68687V4.7967ZM7.80021 21.6967C7.80021 21.87 7.72799 22.0289 7.58354 22.1734C7.4391 22.3178 7.28021 22.39 7.10687 22.39C6.93354 22.39 6.77465 22.3178 6.63021 22.1734C6.48576 22.0289 6.41354 21.8556 6.41354 21.6534C6.41354 21.4511 6.48576 21.2923 6.63021 21.1767C6.77465 21.0611 6.93354 21.0034 7.10687 21.0034C7.28021 21.0034 7.4391 21.0611 7.58354 21.1767C7.72799 21.2923 7.80021 21.4656 7.80021 21.6967ZM12.7402 5.5767C12.4513 5.5767 12.1913 5.66336 11.9602 5.8367L1.12687 13.29C0.895764 13.4634 0.751319 13.7089 0.693542 14.0267C0.635764 14.3445 0.693542 14.6189 0.866875 14.85L1.47354 15.7167C1.64687 15.9478 1.87799 16.0923 2.16688 16.15C2.45576 16.2078 2.74465 16.15 3.03354 15.9767L12.8269 9.13003L22.7069 15.9767C22.938 16.15 23.2124 16.2078 23.5302 16.15C23.848 16.0923 24.0935 15.9478 24.2669 15.7167L24.8735 14.85C25.0469 14.6189 25.1047 14.3445 25.0469 14.0267C24.9891 13.7089 24.8447 13.4634 24.6135 13.29L13.7802 5.8367C13.4913 5.66336 13.1447 5.5767 12.7402 5.5767ZM12.8269 6.6167C12.9424 6.6167 13.058 6.64558 13.1735 6.70336L23.9202 14.2434L23.3135 15.11L13.1735 8.09003C12.9424 7.9167 12.7402 7.9167 12.5669 8.09003L2.34021 15.11L1.73354 14.2434L12.5669 6.70336C12.6247 6.64558 12.7113 6.6167 12.8269 6.6167Z" fill="#1A1A1A"/>
</g>
<defs>
<clipPath id="clip0_2_1635">
<rect width="26" height="26" fill="white" transform="matrix(1 0 0 -1 0 26.55)"/>
</clipPath>
</defs>
</svg>
